<?xml version="1.0" standalone="no"?>
<svg xmlns:xlink="http://www.w3.org/1999/xlink" id="wave" style="transform:rotate(0deg); transition: 0.3s" viewBox="0 0 1440 490" version="1.1" xmlns="http://www.w3.org/2000/svg"><defs><linearGradient id="sw-gradient-0" x1="0" x2="0" y1="1" y2="0"><stop stop-color="rgba(255, 255, 255, 1)" offset="0%"/><stop stop-color="rgba(109.703, 109.703, 109.703, 1)" offset="100%"/></linearGradient></defs><path style="transform:translate(0, 0px); opacity:1" fill="url(#sw-gradient-0)" d="M0,98L48,138.8C96,180,192,261,288,261.3C384,261,480,180,576,196C672,212,768,327,864,334.8C960,343,1056,245,1152,245C1248,245,1344,343,1440,383.8C1536,425,1632,408,1728,383.8C1824,359,1920,327,2016,310.3C2112,294,2208,294,2304,294C2400,294,2496,294,2592,294C2688,294,2784,294,2880,318.5C2976,343,3072,392,3168,343C3264,294,3360,147,3456,98C3552,49,3648,98,3744,155.2C3840,212,3936,278,4032,302.2C4128,327,4224,310,4320,269.5C4416,229,4512,163,4608,155.2C4704,147,4800,196,4896,236.8C4992,278,5088,310,5184,302.2C5280,294,5376,245,5472,204.2C5568,163,5664,131,5760,163.3C5856,196,5952,294,6048,318.5C6144,343,6240,294,6336,236.8C6432,180,6528,114,6624,81.7C6720,49,6816,49,6864,49L6912,49L6912,490L6864,490C6816,490,6720,490,6624,490C6528,490,6432,490,6336,490C6240,490,6144,490,6048,490C5952,490,5856,490,5760,490C5664,490,5568,490,5472,490C5376,490,5280,490,5184,490C5088,490,4992,490,4896,490C4800,490,4704,490,4608,490C4512,490,4416,490,4320,490C4224,490,4128,490,4032,490C3936,490,3840,490,3744,490C3648,490,3552,490,3456,490C3360,490,3264,490,3168,490C3072,490,2976,490,2880,490C2784,490,2688,490,2592,490C2496,490,2400,490,2304,490C2208,490,2112,490,2016,490C1920,490,1824,490,1728,490C1632,490,1536,490,1440,490C1344,490,1248,490,1152,490C1056,490,960,490,864,490C768,490,672,490,576,490C480,490,384,490,288,490C192,490,96,490,48,490L0,490Z"/></svg>